<?xml version="1.0" encoding="UTF-8"?>
<svg xmlns="http://www.w3.org/2000/svg" xmlns:inkscape="http://www.inkscape.org/namespaces/inkscape" viewBox="0 0 256 256">
<defs id="defs4">

</defs>
<path style="fill:#7B7C7E;fill-opacity:0.5;stroke:none" d="m 16,10 224,0 c 3.324,0 6,2.676 6,6 l 0,224 c 0,3.324 -2.676,6 -6,6 l -224,0 c -3.324,0 -6,-2.676 -6,-6 L 10,16 c 0,-3.324 2.676,-6 6,-6 z"  id="rect4240"/>
<path style="fill:#2a2e32;fill-opacity:1;stroke:none" d="m 16,12 224,0 c 2.216,0 4,1.784 4,4 l 0,224 c 0,2.216 -1.784,4 -4,4 l -224,0 c -2.216,0 -4,-1.784 -4,-4 L 12,16 c 0,-2.216 1.784,-4 4,-4 z"  id="rect4238"/>
<path inkscape:connector-curvature="0" style="opacity:0.5;fill:#fcfcfc;fill-opacity:1;stroke:none" d="m 22.5,57.5 0,141 1,0 209,0 1,0 0,-141 -1,0 -209,0 -1,0 z m 1,1 34,0 0,34 -34,0 0,-34 z m 35,0 34,0 0,34 -34,0 0,-34 z m 35,0 34,0 0,34 -34,0 0,-34 z m 35,0 34,0 0,34 -34,0 0,-34 z m 35,0 34,0 0,34 -34,0 0,-34 z m 35,0 34,0 0,34 -34,0 0,-34 z m -175,35 34,0 0,34 -34,0 0,-34 z m 35,0 34,0 0,34 -34,0 0,-34 z m 35,0 34,0 0,34 -34,0 0,-34 z m 35,0 34,0 0,34 -34,0 0,-34 z m 35,0 34,0 0,34 -34,0 0,-34 z m 35,0 34,0 0,34 -34,0 0,-34 z m -175,35 34,0 0,34 -34,0 0,-34 z m 35,0 34,0 0,34 -34,0 0,-34 z m 35,0 34,0 0,34 -34,0 0,-34 z m 35,0 34,0 0,34 -34,0 0,-34 z m 35,0 34,0 0,34 -34,0 0,-34 z m 35,0 34,0 0,34 -34,0 0,-34 z m -175,35 34,0 0,34 -34,0 0,-34 z m 35,0 34,0 0,34 -34,0 0,-34 z m 35,0 34,0 0,34 -34,0 0,-34 z m 35,0 34,0 0,34 -34,0 0,-34 z m 35,0 34,0 0,34 -34,0 0,-34 z m 35,0 34,0 0,34 -34,0 0,-34 z"  id="rect4603-4"/>
<path inkscape:connector-curvature="0" style="opacity:1;fill:#fcfcfc;fill-opacity:1;stroke:none" d="m 58.5,58.5 0,34 34,0 0,-34 -34,0 z m 70,35 0,34 34,0 0,-34 -34,0 z m 70,0 0,34 34,0 0,-34 -34,0 z m -105,35 0,34 34,0 0,-34 -34,0 z m 70,0 0,34 34,0 0,-34 -34,0 z m 35,0 0,34 34,0 0,-34 -34,0 z m -175,35 0,34 34,0 0,-34 -34,0 z"  id="rect4700-4"/>
</svg>
