<?xml version="1.0" encoding="UTF-8"?>
<svg xmlns="http://www.w3.org/2000/svg" xmlns:xlink="http://www.w3.org/1999/xlink" xmlns:cc="http://creativecommons.org/ns#" xmlns:dc="http://purl.org/dc/elements/1.1/" xmlns:rdf="http://www.w3.org/1999/02/22-rdf-syntax-ns#" xmlns:inkscape="http://www.inkscape.org/namespaces/inkscape" xmlns:sodipodi="http://sodipodi.sourceforge.net/DTD/sodipodi-0.dtd" width="48" height="48">

<g style="fill:none" id="48-48-osd-rotate-flip">
<rect id="rect4221" height="48" width="48" x="0" y="0" style="fill:none"/>
<path style="color:#7b7c7e;fill:#fcfcfc;fill-opacity:1;fill-rule:evenodd;stroke:none" d="m 66,23 0,28 18,0 0,5 -3,0 0,1 14,0 0,-1 -3,0 0,-5 18,0 0,-28 -44,0 z m 43,1 0,26 L 67,50 67,24.001953 109,24 Z m -41,1 0,24 40,0 0,-24 -40,0 z m 1,1 38,0 0,22 -38,0 0,-22 z m 16,25 6,0 0,5 -6,0 0,-5 z" transform="translate(-64,-16.00004)" id="path4225" inkscape:connector-curvature="0" />
<path id="path4231" d="M 24,13.0001 20,18 l 3,0 0,6 -3,0 4,5 4,-5 -3,0 0,-6 3,0 -4,-4.9999 z" inkscape:connector-curvature="0" style="fill:#3daee9;fill-opacity:1;stroke:none" />
</g>
</svg>
