<?xml version="1.0" encoding="UTF-8"?>
<svg xmlns="http://www.w3.org/2000/svg" xmlns:xlink="http://www.w3.org/1999/xlink" width="48" height="48">

<g id="weather-clouds-wind-symbolic" class="ColorScheme-Text" stroke-linejoin="bevel">
<path id="path5"  d="m12.6 29.1 a9 9 0 0 1 13.2 -12" stroke="#fcfcfc" stroke-width="2" fill="none"/>
<path d="m4 24h5" fill="none" stroke="currentColor" stroke-width="2" id="suncl"/>
<use transform="rotate( 36 20 24)" href="#suncl"/>
<use transform="rotate( 72 20 24)" href="#suncl"/>
<use transform="rotate(108 20 24)" href="#suncl"/>
<use transform="rotate(144 20 24)" href="#suncl"/>
<path  id="cloud" d="m34 39 h 2 a 7 7 0 0 0 0.95 -13.92 h -3 a 9 9 0 0 0 -8.95-8.08 a 9 9 0 0 0 -8.36 12.31 a 5 5 0 1 0 -1.63 9.69h1 " fill="none" stroke="#fcfcfc" stroke-width="2"/>
<path id="wind1"  d="m18 32 h11 a3 3 0 1 0 -3 -3" stroke="#fcfcfc" stroke-width="2" fill="none"/>
<path id="wind2"  d="m15 35 h22 a3 3 0 1 0 -3 -3" stroke="#fcfcfc" stroke-width="2" fill="none"/>
<path id="wind3"  d="m17 38 h12 a3 3 0 1 1 -3 3" stroke="#fcfcfc" stroke-width="2" fill="none"/>
<rect width="48" height="48" fill="none"/>
</g>
</svg>
