<?xml version="1.0" encoding="UTF-8"?>
<svg viewBox="0 0 32 32" xmlns="http://www.w3.org/2000/svg">

<g style="fill:#da4453;fill-opacity:1;stroke:none" >
<path d="m5 2v13h1v-12h14v7h7v5h1v-6l-7-7z"/>
<path d="m5.0000234 17.999856 1.9999766.000144-.0000233 11.999784-1.9999767-.000144z"/>
<path d="m2 16h28v1h-28z"/>
<path d="m8.0000234 17.999856 1.9999766.000144-.000023 11.999784-1.999977-.000144z"/>
<path d="m11 18 1.999977.000144-.000023 11.999784-1.999977-.000144z"/>
<path d="m14 18 1.999977.000144-.000023 11.999784-1.999977-.000144z"/>
<path d="m17 18 1.999977.000144-.000023 11.999784-1.999977-.000144z"/>
<path d="m20 18 1.999977.000144-.000023 11.999784-1.999977-.000144z"/>
<path d="m23.000023 17.999856 1.999977.000144-.000023 11.999784-1.999977-.000144z"/>
<path d="m26.000023 17.999856 1.999977.000144-.000023 11.999784-1.999977-.000144z"/>
</g>
</svg>
