<?xml version="1.0" encoding="UTF-8"?>
<svg version="1.1" viewBox="0 0 64 64" xmlns="http://www.w3.org/2000/svg">

<path id="smartphone"  d="m22 6c-2.216 0-4 1.784-4 4v44c0 2.216 1.784 4 4 4h20c2.216 0 4-1.784 4-4v-44c0-2.216-1.784-4-4-4h-20zm0 1h20c1.662 0 3 1.338 3 3v44c0 1.662-1.338 3-3 3h-20c-1.662 0-3-1.338-3-3v-44c0-1.662 1.338-3 3-3zm0 2c-0.55228 0-1 0.44772-1 1 0 0.55228 0.44772 1 1 1s1-0.44772 1-1c0-0.55228-0.44772-1-1-1zm5.5 45c-0.277 0-0.5 0.223-0.5 0.5s0.223 0.5 0.5 0.5h9c0.277 0 0.5-0.223 0.5-0.5s-0.223-0.5-0.5-0.5h-9z" fill="#fcfcfc"/>
<path id="checkmark"  d="m38 27-8 8-4-3-1 1 5 4 9-9z" fill="#27ae60"/>
</svg>
