<svg xmlns="http://www.w3.org/2000/svg" height="24" width="24" viewBox="0 0 24 24">

<g transform="translate(1,1)">
<path d="M11.008 0a1 1 0 0 0-.903.553l-10 20A1 1 0 0 0 1 22h20a1 1 0 0 0 .895-1.447l-10-20A1 1 0 0 0 11.008 0z" style="fill:#f67400;fill-opacity:1;stroke:none" />
<path d="M10 4v12h2V4zm0 14v2h2v-2z" fill="#fff"/>
<path d="M11.008 0a1 1 0 0 0-.903.553l-10 20A1 1 0 0 0 1 22h20a1 1 0 0 0 .895-1.447l-10-20A1 1 0 0 0 11.008 0zM11 1l10 20H1z" style="fill:#31363b;fill-opacity:0.6;stroke:none" />
</g>
</svg>
