<?xml version="1.0" encoding="UTF-8"?>
<svg xmlns="http://www.w3.org/2000/svg" viewBox="0 0 24 24" width="24" height="24">

<g transform="translate(1,1)">
<path d="M11 0A11 11 0 0 0 0 11a11 11 0 0 0 11 11 11 11 0 0 0 11-11A11 11 0 0 0 11 0z" style="fill:#f67400;fill-opacity:1;stroke:none" />
<path d="M10 3v12h2V3zm0 14v2h2v-2z" fill="#fff"/>
<path d="M11 0A11 11 0 0 0 0 11a11 11 0 0 0 11 11 11 11 0 0 0 11-11A11 11 0 0 0 11 0zm0 1a10 10 0 0 1 10 10 10 10 0 0 1-10 10A10 10 0 0 1 1 11 10 10 0 0 1 11 1z" style="fill:#31363b;fill-opacity:0.6;stroke:none" />
</g>
</svg>
