<?xml version="1.0" encoding="UTF-8"?>
<svg xmlns="http://www.w3.org/2000/svg" height="24" width="24" viewBox="0 0 24 24">

<g transform="translate(1,1)">
<path style="fill:#27ae60;fill-opacity:1;stroke:none"  d="M11 0A11 11 0 0 0 0 11a11 11 0 0 0 11 11 11 11 0 0 0 11-11A11 11 0 0 0 11 0z"/>
<path style="fill:#31363b;fill-opacity:0.6;stroke:none"  d="M11 0A11 11 0 0 0 0 11a11 11 0 0 0 11 11 11 11 0 0 0 11-11A11 11 0 0 0 11 0zm0 1a10 10 0 0 1 10 10 10 10 0 0 1-10 10A10 10 0 0 1 1 11 10 10 0 0 1 11 1z"/>
<path d="M17.586 5.414L9 14 4.414 9.414 3 10.828l6 6 10-10z" fill="#fff"/>
</g>
</svg>
