<?xml version="1.0" encoding="UTF-8"?>
<svg height="16" width="16" xmlns="http://www.w3.org/2000/svg">

<rect style="fill:#3daee9;fill-opacity:1;stroke:none"  height="16" rx="2" width="16"/>
<path d="M2 0C.892 0 0 .892 0 2v12c0 1.108.892 2 2 2h12c1.108 0 2-.892 2-2V2c0-1.108-.892-2-2-2zm0 1h12c.554 0 1 .446 1 1v12c0 .554-.446 1-1 1H2c-.554 0-1-.446-1-1V2c0-.554.446-1 1-1z" style="fill:#31363b;fill-opacity:0.6;stroke:none" />

<g fill="#fff">
<path d="M8 4l-6 6 1.414 1.414L8 6.828l4.586 4.586L14 10z"/>
<path d="m15 14a1 1 0 0 1 -1 1 1 1 0 0 1 -1-1 1 1 0 0 1 1-1 1 1 0 0 1 1 1z"/>
<path d="m9 14a1 1 0 0 1 -1 1 1 1 0 0 1 -1-1 1 1 0 0 1 1-1 1 1 0 0 1 1 1z"/>
<path d="m12 14a1 1 0 0 1 -1 1 1 1 0 0 1 -1-1 1 1 0 0 1 1-1 1 1 0 0 1 1 1z"/>
</g>
</svg>
