<?xml version="1.0" encoding="UTF-8"?>
<svg xmlns="http://www.w3.org/2000/svg" xmlns:xlink="http://www.w3.org/1999/xlink" xmlns:cc="http://creativecommons.org/ns#" xmlns:dc="http://purl.org/dc/elements/1.1/" xmlns:rdf="http://www.w3.org/1999/02/22-rdf-syntax-ns#" xmlns:inkscape="http://www.inkscape.org/namespaces/inkscape" xmlns:sodipodi="http://sodipodi.sourceforge.net/DTD/sodipodi-0.dtd" width="32" height="32">

<g style="fill:none" id="32-32-osd-sbs-sright">
<rect id="rect4203" height="32" width="32" x="0" y="0" style="fill:none"/>
<path style="color:#7b7c7e;fill:#fcfcfc;fill-opacity:1;stroke:none" d="m 114,41 0,14 17,0 0,-14 -17,0 z m 18,0 0,1 9,0 0,12 -9,0 0,1 10,0 0,-14 -10,0 z m -17,1 15,0 0,12 -15,0 0,-12 z" transform="translate(-112,-32.00004)" id="path4207" inkscape:connector-curvature="0" />
<path style="fill:#3daee9;fill-opacity:1;fill-rule:evenodd;stroke:none" d="m 124,44 0,8 5,0 0,-1 -4,0 0,-4 4,0 0,-3 -5,0 z m 8,0 0,3 4,0 0,4 -4,0 0,1 5,0 0,-8 -5,0 z m 1,1 1,0 0,1 -1,0 0,-1 z m 2,0 1,0 0,1 -1,0 0,-1 z" transform="translate(-112,-32.00004)" id="path4213" inkscape:connector-curvature="0" />
</g>
</svg>
