<svg version="1.1" viewBox="0 0 22 22" xmlns="http://www.w3.org/2000/svg">
  <g transform="matrix(.72727 0 0 .72727 5.1434 5.8464)">
    <rect y="4" width="22" height="14" ry="2" fill="#7f8c8d"/>
    <path d="m1.818 4a1.815 1.815 0 00-1.818 1.818v10.364c0 1.007.811 1.818 1.818 1.818h18.364a1.815 1.815 0 001.818-1.818v-10.364a1.815 1.815 0 00-1.818-1.818zm.182 1h18c.554 0 1 .446 1 1v10c0 .554-.446 1-1 1h-18c-.554 0-1-.446-1-1v-10c0-.554.446-1 1-1z" style="fill-opacity:.6;fill:#31363b"/>
    <g fill="#ffffff">
      <path d="m4 7c-.554 0-1 .446-1 1v6c0 .554.446 1 1 1h5c.554 0 1-.446 1-1v-6c0-.554-.446-1-1-1zm0 1h5v6h-5zm9-1c-.554 0-1 .446-1 1v6c0 .554.446 1 1 1h5c.554 0 1-.446 1-1v-6c0-.554-.446-1-1-1zm0 1h5v6h-5z"/>
      <rect x="8" y="9.5" width="6" height="3" ry="1"/>
    </g>
  </g>
</svg>
