<?xml version="1.0" encoding="UTF-8"?>
<svg viewBox="0 0 22 22" xmlns="http://www.w3.org/2000/svg">

<path style="fill:#da4453;fill-opacity:1;stroke:none"  d="M11 0A11 11 0 0 0 0 11a11 11 0 0 0 11 11 11 11 0 0 0 11-11A11 11 0 0 0 11 0z"/>
<path d="M3 10v2h16v-2z" fill="#fff"/>
<path d="M11 0A11 11 0 0 0 0 11a11 11 0 0 0 11 11 11 11 0 0 0 11-11A11 11 0 0 0 11 0zm0 1a10 10 0 0 1 10 10 10 10 0 0 1-10 10A10 10 0 0 1 1 11 10 10 0 0 1 11 1z" style="fill:#31363b;fill-opacity:0.6;stroke:none" />
</svg>
