<?xml version="1.0" encoding="UTF-8"?>
<svg xmlns="http://www.w3.org/2000/svg" viewBox="0 0 24 24" width="24" height="24">
<defs id="defs3051">

</defs>
<g transform="translate(1,1)">
<path style="fill:#fcfcfc;fill-opacity:1;stroke:none" d="M 3 9 L 3 12 L 6 12 L 6 11 L 7 11 L 7 10 L 6 10 L 6 9 L 3 9 z M 16 9 L 16 10 L 11 10 L 11 11 L 16 11 L 16 12 L 19 12 L 19 9 L 16 9 z M 4 10 L 5 10 L 5 11 L 4 11 L 4 10 z M 17 10 L 18 10 L 18 11 L 17 11 L 17 10 z " />
<path style="fill:#3daee9;fill-opacity:1;stroke:none" d="M 7 8 L 7 12 L 11 12 L 11 8 L 7 8 z M 8 9 L 10 9 L 10 11 L 8 11 L 8 9 z " />
</g>
</svg>
