<?xml version="1.0" encoding="UTF-8"?>
<svg xmlns="http://www.w3.org/2000/svg" height="24" width="24" viewBox="0 0 24 24">
<defs id="defs3051">

</defs>
<g transform="translate(1,1)">
<path style="fill:#fcfcfc;fill-opacity:1;stroke:none" d="m4 3v2h-1v3h1v6h-1v3h1v2h14v-16zm2 1h11v14h-11zm1 1v1h5v-1zm0 2v1h6v-1zm0 2v1h5v-1zm0 2v1h6v-1zm0 2v1h5v-1zm0 2v1h6v-1z" />
<path style="fill:#da4453;fill-opacity:1;stroke:none" d="m14 9v1h2v-1z" />
<path style="fill:#27ae60;fill-opacity:1;stroke:none" d="m14 5v1h2v-1zm0 8v1h2v-1z" />
</g>
</svg>
